<mxfile host="Electron" modified="2023-09-13T11:54:53.045Z" agent="Mozilla/5.0 (Macintosh; Intel Mac OS X 10_15_7) AppleWebKit/537.36 (KHTML, like Gecko) draw.io/21.6.8 Chrome/114.0.5735.289 Electron/25.5.0 Safari/537.36" etag="02tFTPCG1LOqI1Ff-L_W" version="21.6.8" type="device">
  <diagram id="R2lEEEUBdFMjLlhIrx00" name="Page-1">
    <mxGraphModel dx="1022" dy="793" grid="0" gridSize="10" guides="1" tooltips="1" connect="1" arrows="1" fold="1" page="1" pageScale="1" pageWidth="583" pageHeight="827" background="#ffffff" math="0" shadow="0" extFonts="Permanent Marker^https://fonts.googleapis.com/css?family=Permanent+Marker">
      <root>
        <mxCell id="0" />
        <mxCell id="1" parent="0" />
        <mxCell id="c4Pszokd2AULzj1XdHWD-1" value="Pokemons" style="rounded=0;whiteSpace=wrap;html=1;labelBackgroundColor=none;fillColor=#09555B;strokeColor=#BAC8D3;fontColor=#EEEEEE;" vertex="1" parent="1">
          <mxGeometry x="41" y="260" width="120" height="60" as="geometry" />
        </mxCell>
        <mxCell id="c4Pszokd2AULzj1XdHWD-2" value="StonesToPokemons" style="rounded=0;whiteSpace=wrap;html=1;labelBackgroundColor=none;fillColor=#09555B;strokeColor=#BAC8D3;fontColor=#EEEEEE;" vertex="1" parent="1">
          <mxGeometry x="221" y="140" width="120" height="60" as="geometry" />
        </mxCell>
        <mxCell id="c4Pszokd2AULzj1XdHWD-3" value="Stones" style="rounded=0;whiteSpace=wrap;html=1;strokeColor=#BAC8D3;fontColor=#EEEEEE;fillColor=#09555B;" vertex="1" parent="1">
          <mxGeometry x="401" y="140" width="120" height="60" as="geometry" />
        </mxCell>
        <mxCell id="c4Pszokd2AULzj1XdHWD-4" value="TrainerToPokemon" style="rounded=0;whiteSpace=wrap;html=1;labelBackgroundColor=none;fillColor=#09555B;strokeColor=#BAC8D3;fontColor=#EEEEEE;" vertex="1" parent="1">
          <mxGeometry x="41" y="360" width="120" height="60" as="geometry" />
        </mxCell>
        <mxCell id="c4Pszokd2AULzj1XdHWD-5" value="Trainer" style="rounded=0;whiteSpace=wrap;html=1;labelBackgroundColor=none;fillColor=#09555B;strokeColor=#BAC8D3;fontColor=#EEEEEE;" vertex="1" parent="1">
          <mxGeometry x="41" y="490" width="120" height="60" as="geometry" />
        </mxCell>
        <mxCell id="c4Pszokd2AULzj1XdHWD-6" value="PokemonOnSale" style="rounded=0;whiteSpace=wrap;html=1;labelBackgroundColor=none;fillColor=#09555B;strokeColor=#BAC8D3;fontColor=#EEEEEE;" vertex="1" parent="1">
          <mxGeometry x="251" y="320" width="120" height="60" as="geometry" />
        </mxCell>
        <mxCell id="c4Pszokd2AULzj1XdHWD-7" value="" style="edgeStyle=entityRelationEdgeStyle;fontSize=12;html=1;endArrow=ERoneToMany;startArrow=ERmandOne;rounded=0;strokeColor=#0B4D6A;exitX=1;exitY=0.5;exitDx=0;exitDy=0;entryX=0;entryY=0.5;entryDx=0;entryDy=0;" edge="1" parent="1" source="c4Pszokd2AULzj1XdHWD-1" target="c4Pszokd2AULzj1XdHWD-2">
          <mxGeometry width="100" height="100" relative="1" as="geometry">
            <mxPoint x="171" y="330" as="sourcePoint" />
            <mxPoint x="271" y="230" as="targetPoint" />
          </mxGeometry>
        </mxCell>
        <mxCell id="c4Pszokd2AULzj1XdHWD-8" value="" style="edgeStyle=entityRelationEdgeStyle;fontSize=12;html=1;endArrow=ERoneToMany;startArrow=ERmandOne;rounded=0;strokeColor=#0B4D6A;exitX=0;exitY=0.5;exitDx=0;exitDy=0;entryX=1;entryY=0.5;entryDx=0;entryDy=0;" edge="1" parent="1" source="c4Pszokd2AULzj1XdHWD-3" target="c4Pszokd2AULzj1XdHWD-2">
          <mxGeometry width="100" height="100" relative="1" as="geometry">
            <mxPoint x="171" y="300" as="sourcePoint" />
            <mxPoint x="231" y="180" as="targetPoint" />
          </mxGeometry>
        </mxCell>
        <mxCell id="c4Pszokd2AULzj1XdHWD-10" value="" style="edgeStyle=entityRelationEdgeStyle;fontSize=12;html=1;endArrow=ERoneToMany;startArrow=ERmandOne;rounded=0;strokeColor=#0B4D6A;exitX=1;exitY=0.5;exitDx=0;exitDy=0;entryX=1;entryY=0.667;entryDx=0;entryDy=0;entryPerimeter=0;" edge="1" parent="1" source="c4Pszokd2AULzj1XdHWD-5" target="c4Pszokd2AULzj1XdHWD-4">
          <mxGeometry width="100" height="100" relative="1" as="geometry">
            <mxPoint x="171" y="300" as="sourcePoint" />
            <mxPoint x="231" y="180" as="targetPoint" />
          </mxGeometry>
        </mxCell>
        <mxCell id="c4Pszokd2AULzj1XdHWD-11" value="" style="edgeStyle=entityRelationEdgeStyle;fontSize=12;html=1;endArrow=ERoneToMany;startArrow=ERmandOne;rounded=0;strokeColor=#0B4D6A;exitX=1;exitY=0.629;exitDx=0;exitDy=0;exitPerimeter=0;" edge="1" parent="1" source="c4Pszokd2AULzj1XdHWD-1" target="c4Pszokd2AULzj1XdHWD-4">
          <mxGeometry width="100" height="100" relative="1" as="geometry">
            <mxPoint x="181" y="310" as="sourcePoint" />
            <mxPoint x="241" y="190" as="targetPoint" />
          </mxGeometry>
        </mxCell>
        <mxCell id="c4Pszokd2AULzj1XdHWD-12" value="" style="edgeStyle=entityRelationEdgeStyle;fontSize=12;html=1;endArrow=ERmandOne;startArrow=ERmandOne;rounded=0;strokeColor=#0B4D6A;exitX=1;exitY=0.5;exitDx=0;exitDy=0;entryX=0;entryY=0.5;entryDx=0;entryDy=0;" edge="1" parent="1" source="c4Pszokd2AULzj1XdHWD-1" target="c4Pszokd2AULzj1XdHWD-6">
          <mxGeometry width="100" height="100" relative="1" as="geometry">
            <mxPoint x="251" y="600" as="sourcePoint" />
            <mxPoint x="351" y="500" as="targetPoint" />
          </mxGeometry>
        </mxCell>
        <mxCell id="c4Pszokd2AULzj1XdHWD-13" value="StonesOnSale" style="rounded=0;whiteSpace=wrap;html=1;strokeColor=#BAC8D3;fontColor=#EEEEEE;fillColor=#09555B;" vertex="1" parent="1">
          <mxGeometry x="401" y="320" width="120" height="60" as="geometry" />
        </mxCell>
        <mxCell id="c4Pszokd2AULzj1XdHWD-14" value="" style="edgeStyle=entityRelationEdgeStyle;fontSize=12;html=1;endArrow=ERmandOne;startArrow=ERmandOne;rounded=0;strokeColor=#0B4D6A;exitX=1;exitY=0.5;exitDx=0;exitDy=0;" edge="1" parent="1" source="c4Pszokd2AULzj1XdHWD-3" target="c4Pszokd2AULzj1XdHWD-13">
          <mxGeometry width="100" height="100" relative="1" as="geometry">
            <mxPoint x="171" y="300" as="sourcePoint" />
            <mxPoint x="261" y="360" as="targetPoint" />
          </mxGeometry>
        </mxCell>
      </root>
    </mxGraphModel>
  </diagram>
</mxfile>
